<?xml version="1.0" standalone="no"?>
<!DOCTYPE svg PUBLIC "-//W3C//DTD SVG 20010904//EN"
 "http://www.w3.org/TR/2001/REC-SVG-20010904/DTD/svg10.dtd">
<svg version="1.0" xmlns="http://www.w3.org/2000/svg"
 width="586.000000pt" height="586.000000pt" viewBox="0 0 586.000000 586.000000"
 preserveAspectRatio="xMidYMid meet">

<g transform="translate(0.000000,586.000000) scale(0.100000,-0.100000)"
fill="#000000" stroke="none">
<path d="M2680 5784 c-650 -58 -1243 -319 -1716 -756 -112 -102 -253 -255
-308 -333 -240 -338 -356 -551 -456 -840 -112 -323 -154 -589 -153 -955 0
-198 5 -272 22 -385 55 -355 140 -621 295 -921 427 -825 1210 -1384 2141
-1526 215 -33 600 -32 820 0 373 56 741 185 1047 367 741 441 1241 1171 1382
2015 50 296 48 692 -4 975 -96 523 -318 981 -675 1394 -331 382 -817 696
-1312 847 -281 85 -481 114 -798 119 -132 1 -260 1 -285 -1z m410 -44 c0 -6
-78 -10 -215 -10 -137 0 -215 4 -215 10 0 6 78 10 215 10 137 0 215 -4 215
-10z m175 -1099 l120 -121 -43 0 c-35 0 -42 3 -42 20 0 17 -6 20 -42 19 -41
-1 -41 -2 -13 -9 17 -5 -52 -8 -162 -7 -106 1 -193 5 -193 8 0 4 -99 7 -220 8
l-220 1 0 -25 c0 -23 -4 -25 -45 -25 -25 0 -45 2 -45 4 0 14 228 235 245 238
11 2 137 4 280 6 l260 3 120 -120z m-2416 -32 c51 -34 127 -95 170 -137 175
-174 249 -340 258 -582 l5 -125 -206 -205 c-113 -113 -206 -208 -206 -212 0
-4 9 -12 20 -18 16 -8 28 -8 50 3 16 9 32 11 37 6 8 -8 59 8 161 51 l23 10
-37 45 -36 45 37 15 c20 9 65 19 99 22 60 5 64 4 92 -25 l29 -31 60 24 60 24
-47 0 c-27 1 -48 5 -48 10 0 4 22 29 50 55 l49 46 466 2 c256 1 475 2 487 2
14 1 24 -6 28 -19 5 -20 13 -20 426 -20 l420 0 -1 367 c-1 202 1 366 3 363 2
-2 4 -32 3 -67 l-1 -63 208 3 207 3 120 -121 120 -120 -80 -2 c-44 -1 -100 -3
-125 -4 -25 -1 -136 -2 -247 -3 -197 -1 -203 -2 -203 -21 0 -21 4 -21 270 -17
222 3 270 1 266 -10 -3 -7 -1 -13 3 -13 5 0 11 6 14 13 2 6 8 8 13 4 5 -5 1
-14 -9 -22 -17 -12 -17 -15 -2 -45 9 -18 19 -29 22 -26 3 3 0 13 -8 22 -11 14
-10 16 6 13 27 -5 45 8 45 33 0 14 -5 18 -15 14 -8 -3 -15 0 -15 7 0 8 18 12
53 12 51 0 57 -3 115 -55 65 -58 77 -75 61 -85 -5 -4 -8 -1 -7 6 2 6 -3 14
-11 17 -8 3 -11 0 -7 -6 8 -13 -49 -67 -72 -68 -29 -2 -62 -15 -62 -25 0 -5
12 -6 26 -3 16 4 25 3 21 -2 -3 -5 -19 -11 -35 -12 -24 -2 -30 2 -27 15 4 31
-4 33 -30 7 -31 -31 -56 -32 -52 -1 1 14 -3 22 -13 22 -8 0 -18 5 -22 10 -5 6
-8 5 -8 -3 0 -7 -8 -12 -17 -10 -12 2 -17 -3 -15 -15 2 -9 -3 -19 -10 -22 -10
-3 -280 -12 -450 -15 -34 0 -38 -26 -5 -32 12 -2 233 -2 491 0 l468 4 79 -78
c44 -43 79 -87 79 -97 0 -16 4 -18 23 -12 12 5 51 9 87 9 l64 1 29 -43 c20
-30 35 -42 46 -38 9 2 37 13 63 23 43 16 49 16 63 2 14 -14 10 -17 -42 -33
-32 -10 -71 -19 -88 -20 -42 -3 -125 -29 -125 -38 0 -4 -19 -7 -42 -7 -24 1
-35 3 -25 6 22 6 22 6 -14 69 l-30 53 -51 -20 c-79 -31 -90 -38 -83 -58 4 -15
0 -17 -26 -13 -32 5 -32 5 -11 21 l21 16 -26 43 -25 42 -72 0 c-95 0 -105 -8
-78 -54 l21 -36 -72 0 c-40 0 -82 -3 -94 -6 -17 -5 -23 -2 -23 9 0 9 23 24 58
37 115 46 106 63 -31 58 l-87 -3 25 -38 c14 -20 24 -41 21 -46 -3 -5 -33 -19
-67 -31 -39 -15 -64 -30 -67 -42 -5 -21 -127 -92 -142 -83 -24 15 -6 34 58 60
37 16 69 30 71 32 2 1 -17 34 -42 72 -25 38 -42 72 -36 75 30 15 -16 -5 -79
-34 -39 -18 -72 -37 -72 -41 0 -5 18 -36 40 -70 22 -35 37 -66 33 -69 -5 -4
-38 -19 -75 -35 l-67 -28 21 -30 c18 -25 19 -31 6 -38 -8 -4 -38 -24 -67 -44
-29 -19 -56 -35 -60 -35 -3 0 -16 16 -29 35 -12 19 -27 35 -32 35 -10 0 -131
-49 -138 -55 -2 -2 10 -24 28 -50 18 -26 30 -48 28 -49 -1 -2 -39 -16 -82 -31
-89 -30 -75 -34 -126 35 l-18 24 -59 -25 c-56 -24 -60 -25 -95 -10 -22 9 -50
35 -69 61 -17 25 -33 46 -34 48 -1 1 -23 -7 -49 -18 -26 -11 -67 -20 -91 -20
-42 0 -46 3 -82 55 -21 30 -43 55 -49 55 -14 0 -137 -50 -148 -60 -4 -5 4 -24
19 -44 15 -20 26 -38 24 -39 -2 -1 -35 -18 -74 -37 -38 -19 -73 -36 -76 -38
-10 -5 -70 81 -62 88 5 4 40 19 78 35 39 16 72 30 74 31 2 2 -20 35 -49 74
-44 59 -56 70 -74 64 -24 -7 -139 -55 -144 -59 -2 -2 19 -33 47 -69 28 -36 51
-69 51 -74 0 -5 -32 -22 -71 -37 -38 -16 -72 -32 -75 -37 -3 -5 11 -31 32 -59
30 -41 34 -53 23 -60 -8 -5 -38 -23 -66 -41 -92 -56 -62 -56 44 0 77 40 226
104 303 128 194 62 285 58 520 -23 254 -88 289 -82 685 107 230 109 249 114
470 113 105 0 235 -6 290 -12 217 -25 270 -39 213 -55 -49 -14 -214 -55 -238
-60 -39 -7 -61 -16 -122 -54 l-57 -34 -84 12 c-188 28 -332 -8 -458 -115 -73
-62 -99 -67 -172 -36 -49 21 -81 20 -201 -5 -160 -33 -170 -83 -81 -384 64
-219 77 -297 51 -322 -25 -26 -19 -31 24 -24 40 6 40 6 40 -27 0 -18 -6 -39
-12 -47 -11 -12 -10 -12 5 -1 27 21 22 72 -38 391 -37 198 -52 296 -45 300 15
9 209 44 214 39 2 -2 29 -137 60 -299 63 -334 70 -424 35 -500 -26 -58 -62
-96 -124 -128 -45 -24 -61 -27 -155 -27 -114 0 -136 7 -207 67 l-38 32 29 -31
c15 -17 56 -46 89 -64 136 -72 318 -42 411 68 45 53 58 100 58 196 l-1 87 62
0 c82 0 94 -8 72 -46 -17 -29 -17 -29 2 -4 10 13 27 35 38 48 l21 24 44 -23
c75 -39 205 -36 240 6 18 21 15 83 -5 105 -17 19 -37 24 -209 55 -102 18 -132
32 -180 81 -42 43 -66 109 -66 181 0 126 83 221 240 273 92 31 230 26 313 -12
31 -15 57 -30 57 -33 0 -6 -96 -152 -110 -168 -4 -4 -22 1 -41 12 -93 54 -229
21 -229 -57 0 -56 20 -66 190 -93 105 -16 170 -43 212 -86 50 -51 70 -103 70
-183 1 -151 -104 -264 -280 -301 -76 -15 -203 -6 -271 20 -74 28 -78 18 -6
-14 130 -58 293 -56 418 3 56 27 147 103 147 124 0 4 19 8 42 8 36 0 88 -18
150 -51 17 -8 213 22 226 36 3 3 6 58 6 123 1 95 4 123 19 145 38 58 138 79
181 38 20 -19 23 -32 23 -84 -1 -184 196 -282 330 -164 67 59 88 141 58 226
-8 23 -14 42 -13 44 0 1 -2 12 -6 23 -9 28 -71 70 -116 79 -91 19 -110 49 -90
146 16 75 8 194 -18 271 -19 56 -95 168 -114 168 -5 0 -20 8 -33 18 -12 10
-55 29 -94 42 l-73 24 62 17 c34 9 80 30 103 46 77 54 73 53 462 53 l363 0 8
-32 c4 -18 7 -134 7 -258 0 -264 -22 -442 -83 -685 -119 -472 -370 -914 -720
-1266 -557 -561 -1290 -852 -2075 -826 -720 25 -1378 310 -1885 817 -431 432
-697 963 -791 1580 -30 192 -32 571 -5 755 55 380 170 720 349 1030 79 137
239 365 257 365 3 0 48 -27 99 -61z m2068 -105 c-3 -3 -12 -4 -19 -1 -8 3 -5
6 6 6 11 1 17 -2 13 -5z m156 -1 c-13 -2 -35 -2 -50 0 -16 2 -5 4 22 4 28 0
40 -2 28 -4z m80 0 c-7 -2 -21 -2 -30 0 -10 3 -4 5 12 5 17 0 24 -2 18 -5z
m44 1 c-3 -3 -12 -4 -19 -1 -8 3 -5 6 6 6 11 1 17 -2 13 -5z m102 -71 c0 -46
-4 -70 -8 -59 -4 11 -6 29 -5 40 1 12 3 38 3 59 1 20 3 37 6 37 3 0 5 -35 4
-77z m-359 26 l0 -30 -161 3 c-113 2 -164 7 -171 16 -6 6 -17 12 -24 12 -8 0
-14 6 -14 14 0 12 32 15 185 15 l185 1 0 -31z m268 16 c2 -2 -7 -7 -21 -10
-15 -4 -31 -13 -38 -21 -8 -10 -37 -14 -105 -14 -92 0 -94 1 -94 23 0 13 3 27
7 31 8 7 243 -1 251 -9z m-757 -32 c1 -21 3 -75 4 -120 l4 -82 -42 -6 c-23 -3
-109 -5 -192 -3 l-150 3 116 119 117 119 43 -6 c24 -3 53 -2 64 3 32 14 35 12
36 -27z m126 -373 c5 -283 4 -317 -11 -329 -15 -12 -16 -3 -12 118 3 77 0 129
-5 125 -5 -3 -9 -17 -9 -31 0 -15 -3 -24 -6 -20 -8 8 -14 504 -7 524 4 9 12
-1 25 -29 18 -39 21 -73 25 -358z m653 5 c0 -217 -2 -395 -5 -395 -2 0 -14 21
-25 48 -20 44 -21 63 -21 356 0 264 2 311 16 326 8 9 15 23 15 32 0 13 9 28
17 28 2 0 3 -178 3 -395z m-723 263 c-2 -24 -4 -5 -4 42 0 47 2 66 4 43 2 -24
2 -62 0 -85z m683 105 c-1 -19 -19 -35 -30 -28 -10 6 -9 11 5 22 22 15 25 16
25 6z m281 -23 c5 0 49 -39 97 -87 l87 -88 -160 -3 c-159 -3 -202 1 -177 17 7
4 14 21 15 38 1 17 5 29 8 28 9 -6 36 30 43 58 5 20 13 27 30 27 16 0 26 8 31
23 6 19 8 19 12 5 2 -10 9 -18 14 -18z m-881 4 c0 -8 -4 -12 -10 -9 -5 3 -10
10 -10 16 0 5 5 9 10 9 6 0 10 -7 10 -16z m123 -11 c-13 -2 -33 -2 -45 0 -13
2 -3 4 22 4 25 0 35 -2 23 -4z m190 0 c-24 -2 -62 -2 -85 0 -24 2 -5 4 42 4
47 0 66 -2 43 -4z m170 0 c-24 -2 -62 -2 -85 0 -24 2 -5 4 42 4 47 0 66 -2 43
-4z m-153 -47 c14 -2 -24 -3 -85 -4 -60 0 -100 3 -87 6 21 7 116 5 172 -2z
m88 -3 c-10 -2 -28 -2 -40 0 -13 2 -5 4 17 4 22 1 32 -1 23 -4z m-68 -35 c0
-7 -5 -20 -10 -28 -7 -12 -12 -12 -22 -2 -16 16 -43 15 -58 -3 -12 -14 -15
-14 -30 0 -23 21 -33 19 -18 -5 15 -23 4 -37 -16 -21 -8 7 -20 10 -26 6 -16
-10 -12 -35 7 -35 13 0 9 -8 -15 -33 -18 -18 -32 -37 -32 -42 0 -5 19 -29 42
-52 l42 -43 -43 -44 c-47 -48 -49 -66 -9 -87 l23 -11 -22 21 c-13 12 -23 24
-23 27 0 9 68 -50 69 -60 1 -5 -5 -3 -13 3 -14 12 -26 -4 -26 -36 0 -14 3 -13
24 1 27 17 40 9 25 -14 -15 -25 -10 -34 10 -16 16 15 19 15 31 1 16 -19 34
-19 51 1 12 14 14 14 26 -2 27 -38 17 -44 -71 -44 -102 0 -146 8 -140 25 6 15
-22 39 -36 30 -7 -4 -10 62 -10 208 l0 214 23 -1 c18 -1 22 4 20 27 l-2 27
115 0 c85 0 114 -3 114 -12z m94 -14 c-7 -26 11 -40 30 -25 11 9 15 5 18 -21
9 -60 6 -418 -3 -424 -5 -3 -9 0 -9 5 0 14 -27 14 -35 0 -4 -6 1 -17 11 -25
17 -13 14 -14 -36 -12 l-55 3 -3 40 c-3 32 -1 38 9 28 18 -18 39 -16 39 2 0 9
-10 19 -22 24 l-22 8 21 12 c27 14 36 14 28 1 -11 -18 11 -11 30 10 20 22 18
26 -39 87 -26 28 -28 34 -15 50 9 11 10 14 2 9 -8 -4 -13 -1 -13 8 0 9 -3 16
-7 16 -5 0 -9 12 -9 26 -2 19 5 28 24 35 19 7 22 13 14 21 -8 8 -15 8 -27 -2
-19 -16 -20 0 0 26 14 18 16 18 50 -18 19 -21 35 -34 35 -30 0 5 -11 19 -25
32 -17 16 -22 27 -15 34 16 16 -8 38 -30 26 -23 -13 -28 -5 -27 43 l1 37 43
-2 c39 -1 42 -3 37 -24z m83 -31 c-3 -10 -5 -4 -5 12 0 17 2 24 5 18 2 -7 2
-21 0 -30z m-468 -220 c0 -131 -3 -230 -7 -221 -6 15 -7 88 -3 376 1 45 3 82
6 82 3 0 5 -107 4 -237z m598 -245 c-1 -90 -3 -17 -3 162 0 179 2 252 3 163 2
-90 2 -236 0 -325z m-740 405 c-3 -10 -5 -4 -5 12 0 17 2 24 5 18 2 -7 2 -21
0 -30z m610 5 c-3 -8 -6 -5 -6 6 -1 11 2 17 5 13 3 -3 4 -12 1 -19z m-662
-146 c0 -127 -2 -148 -15 -146 -8 2 -157 5 -330 8 -173 3 -317 5 -319 6 -1 0
53 56 120 125 l124 125 208 -4 c196 -3 207 -2 207 15 0 11 1 19 3 19 1 0 2
-67 2 -148z m400 25 c-15 -37 -32 -54 -43 -42 -3 3 0 10 7 14 18 11 5 32 -15
24 -16 -6 -74 42 -74 63 0 6 7 17 15 24 16 13 21 0 6 -15 -6 -6 9 -19 39 -34
27 -14 52 -22 56 -19 9 9 -15 48 -29 48 -7 0 -22 6 -32 14 -16 11 -17 16 -7
29 11 13 18 10 53 -27 39 -43 39 -43 24 -79z m262 71 c-3 -7 -5 -2 -5 12 0 14
2 19 5 13 2 -7 2 -19 0 -25z m-610 0 c-3 -8 -6 -5 -6 6 -1 11 2 17 5 13 3 -3
4 -12 1 -19z m412 -28 c-12 -16 -26 -27 -31 -24 -14 9 -9 24 7 24 9 0 18 7 21
15 4 8 10 15 15 15 5 0 0 -13 -12 -30z m-88 -6 c17 -21 -5 -17 -32 5 -24 20
-24 20 -2 14 12 -3 28 -11 34 -19z m101 -16 c-7 -7 -12 -8 -12 -2 0 6 3 14 7
17 3 4 9 5 12 2 2 -3 -1 -11 -7 -17z m8 -57 c0 -24 -5 -41 -14 -44 -11 -4 -13
1 -9 24 2 17 0 29 -6 29 -6 0 -11 7 -11 15 0 8 9 15 20 15 17 0 20 -7 20 -39z
m-463 -48 c-3 -10 -5 -2 -5 17 0 19 2 27 5 18 2 -10 2 -26 0 -35z m427 22 c-4
-8 -8 -15 -10 -15 -2 0 -4 7 -4 15 0 8 4 15 10 15 5 0 7 -7 4 -15z m-94 -8 c0
-8 -11 -19 -25 -25 -31 -14 -33 0 -2 21 28 20 27 20 27 4z m200 -36 c0 -3 -11
-7 -25 -7 -18 -1 -25 3 -25 15 0 27 12 33 32 14 10 -9 18 -19 18 -22z m-168
-13 c-7 -7 -12 -8 -12 -2 0 6 3 14 7 17 3 4 9 5 12 2 2 -3 -1 -11 -7 -17z
m-29 -9 c5 -3 -2 -8 -16 -11 -22 -4 -24 -3 -14 13 6 10 14 15 17 11 3 -4 9
-10 13 -13z m112 11 c3 -5 -1 -10 -9 -10 -8 0 -18 5 -21 10 -3 6 1 10 9 10 8
0 18 -4 21 -10z m66 -20 c5 0 9 -4 9 -10 0 -16 -26 -12 -41 7 -12 15 -12 16 4
10 10 -4 23 -7 28 -7z m44 -19 c-3 -6 -11 -11 -17 -11 -6 0 -6 6 2 15 14 17
26 13 15 -4z m-498 -203 c-2 -35 -3 -9 -3 57 0 66 1 94 3 63 2 -32 2 -86 0
-120z m580 140 c-3 -7 -5 -2 -5 12 0 14 2 19 5 13 2 -7 2 -19 0 -25z m-667
-97 l0 -120 -472 -1 -473 0 111 111 c91 91 119 113 150 119 22 4 184 8 362 9
l322 1 0 -119z m368 -8 c-10 -2 -26 -2 -35 0 -10 3 -2 5 17 5 19 0 27 -2 18
-5z m95 0 c-13 -2 -35 -2 -50 0 -16 2 -5 4 22 4 28 0 40 -2 28 -4z m-406 -40
c-3 -10 -5 -4 -5 12 0 17 2 24 5 18 2 -7 2 -21 0 -30z m88 -22 c-3 -6 -11 -11
-17 -11 -6 0 -6 6 2 15 14 17 26 13 15 -4z m593 0 c3 -8 -1 -12 -9 -9 -7 2
-15 10 -17 17 -3 8 1 12 9 9 7 -2 15 -10 17 -17z m-260 0 c8 -1 12 -10 10 -23
-3 -22 -8 -23 -93 -24 -56 -1 -93 3 -97 10 -5 8 -8 7 -8 -2 0 -10 -21 -12 -85
-11 -47 2 -85 6 -85 11 0 4 8 8 19 8 10 0 24 7 31 15 14 16 178 25 308 16z
m232 -20 c31 -18 31 -19 8 -24 -13 -2 -67 -5 -120 -6 l-98 -2 0 25 c0 26 0 26
90 26 70 0 96 -4 120 -19z m-397 -58 c-34 -2 -93 -2 -130 0 -37 2 -9 3 62 3
72 0 102 -1 68 -3z m390 0 c-40 -2 -106 -2 -145 0 -40 1 -8 3 72 3 80 0 112
-2 73 -3z m1629 -749 c91 -30 152 -118 164 -232 17 -161 -91 -271 -311 -317
-47 -10 -85 -21 -85 -24 0 -3 13 -75 30 -160 16 -85 28 -156 26 -158 -6 -6
-216 -46 -220 -42 -8 8 -167 871 -162 877 3 3 81 20 173 38 191 37 314 43 385
18z m338 -623 c0 -11 -9 -21 -21 -24 -23 -6 -17 -27 7 -27 8 0 14 -9 14 -20 0
-11 -6 -20 -14 -20 -10 0 -16 -14 -18 -42 -3 -38 -6 -43 -28 -43 -22 0 -25 5
-28 43 -2 23 -7 42 -13 42 -5 0 -9 9 -9 20 0 11 5 20 10 20 6 0 10 4 10 9 0 5
4 21 10 35 8 21 16 26 45 26 28 0 35 -4 35 -19z"/>
<path d="M3908 3832 c-11 -4 -14 -12 -9 -20 6 -9 12 -8 26 8 18 20 13 24 -17
12z"/>
<path d="M3738 3740 c-3 -16 -1 -30 4 -30 5 0 7 -4 4 -8 -2 -4 4 -9 15 -9 17
-2 18 0 4 13 -16 16 -11 39 6 29 5 -4 9 0 9 8 0 12 -19 27 -35 27 -1 0 -5 -13
-7 -30z"/>
<path d="M3882 3703 c-7 -7 -9 -13 -4 -13 4 0 16 6 26 13 14 10 15 14 4 14 -7
0 -19 -6 -26 -14z"/>
<path d="M1546 3508 c21 -36 88 -118 95 -118 8 0 161 59 167 65 2 1 -9 17 -23
34 l-27 31 -109 0 c-86 0 -109 -3 -103 -12z"/>
<path d="M1883 3483 c-35 -14 -63 -28 -63 -33 0 -4 23 -37 51 -74 28 -38 47
-71 43 -76 -5 -4 -42 -20 -81 -35 -40 -16 -73 -30 -73 -33 0 -11 103 -142 111
-142 11 0 150 58 157 65 3 2 -19 36 -48 75 -29 39 -51 72 -49 74 2 2 39 18 82
36 43 18 77 35 75 39 -2 4 -23 35 -48 69 -52 72 -63 74 -157 35z"/>
<path d="M2229 3492 c23 -43 37 -46 101 -22 33 12 63 27 66 31 3 5 -36 9 -86
9 -85 0 -90 -1 -81 -18z"/>
<path d="M2487 3435 c25 -36 52 -65 58 -65 7 0 42 14 79 30 l67 31 -20 32 -20
32 -106 3 -105 3 47 -66z"/>
<path d="M2786 3460 c-38 -16 -70 -31 -72 -33 -4 -3 66 -109 85 -130 7 -7 128
37 144 53 8 7 -71 140 -83 140 -3 -1 -36 -14 -74 -30z"/>
<path d="M3080 3483 c0 -5 10 -21 23 -37 l23 -28 64 27 c36 15 69 31 75 36 5
5 -30 9 -88 9 -53 0 -97 -3 -97 -7z"/>
<path d="M3288 3484 c-4 -3 14 -36 40 -72 25 -37 46 -68 47 -70 2 -2 146 56
152 62 2 1 -10 22 -27 44 l-30 42 -88 0 c-49 0 -91 -3 -94 -6z"/>
<path d="M1258 3436 c-42 -17 -80 -35 -84 -38 -8 -8 102 -148 116 -148 5 0 45
14 89 31 l80 32 -30 41 c-16 23 -44 57 -62 77 l-32 37 -77 -32z"/>
<path d="M2180 3408 c-41 -18 -77 -33 -79 -34 -5 -4 99 -144 107 -144 4 0 42
14 84 31 54 22 76 35 70 43 -17 30 -97 135 -102 135 -3 0 -39 -14 -80 -31z"/>
<path d="M3037 3377 l-67 -32 46 -65 c25 -36 51 -64 57 -62 26 6 123 46 131
53 11 10 -73 139 -89 138 -5 0 -40 -14 -78 -32z"/>
<path d="M1551 3350 c-40 -16 -75 -31 -78 -34 -8 -8 99 -146 113 -146 10 0
154 57 162 65 4 4 -109 145 -116 145 -4 -1 -40 -14 -81 -30z"/>
<path d="M2460 3328 c-41 -16 -77 -31 -79 -34 -2 -2 13 -27 33 -56 71 -102 55
-95 141 -58 41 18 75 37 75 41 0 7 -81 123 -93 135 -1 1 -36 -11 -77 -28z"/>
<path d="M3293 3303 c-35 -15 -63 -30 -63 -35 0 -7 60 -98 81 -122 10 -11 149
42 149 56 0 17 -81 128 -93 127 -7 0 -40 -12 -74 -26z"/>
<path d="M950 3311 c-10 -7 -15 -36 -18 -105 -3 -53 0 -96 4 -96 5 0 44 14 86
31 69 28 76 33 65 48 -47 65 -103 131 -112 131 -5 0 -17 -4 -25 -9z"/>
<path d="M2726 3248 c-39 -16 -72 -30 -74 -33 -2 -2 17 -34 43 -70 53 -75 50
-74 148 -30 l57 25 -46 65 c-25 35 -48 66 -52 68 -4 2 -38 -9 -76 -25z"/>
<path d="M1195 3206 c-44 -17 -79 -36 -79 -40 1 -4 27 -39 58 -76 l56 -68 79
31 c43 18 79 36 81 40 3 10 -99 147 -109 147 -3 -1 -42 -16 -86 -34z"/>
<path d="M2983 3168 l-72 -30 46 -69 c25 -38 47 -69 48 -69 4 0 140 62 144 66
4 4 -82 133 -89 133 -3 0 -37 -14 -77 -31z"/>
<path d="M1488 3127 c-43 -18 -77 -35 -75 -39 7 -22 104 -137 115 -138 12 0
151 56 160 65 5 5 -107 145 -116 144 -4 -1 -42 -15 -84 -32z"/>
<path d="M930 2990 c0 -83 1 -90 18 -81 9 5 34 16 55 25 l38 15 -51 66 c-29
36 -54 65 -56 65 -2 0 -4 -41 -4 -90z"/>
<path d="M1775 3047 c-38 -17 -72 -32 -74 -34 -6 -4 110 -144 118 -141 3 2 39
16 79 32 39 16 72 33 72 38 0 15 -101 138 -113 137 -7 0 -43 -15 -82 -32z"/>
<path d="M1140 2980 c-36 -16 -69 -31 -74 -33 -6 -2 16 -35 47 -74 l58 -71 77
32 c42 17 78 36 79 41 4 14 -95 135 -110 134 -7 0 -41 -13 -77 -29z"/>
<path d="M1445 2909 c-38 -17 -74 -35 -78 -39 -7 -6 46 -82 93 -133 5 -6 154
45 169 59 4 3 -102 143 -109 143 -3 0 -36 -13 -75 -30z"/>
<path d="M1720 2829 c-35 -17 -66 -32 -69 -34 -2 -2 18 -34 45 -69 31 -42 56
-65 69 -65 26 0 141 65 138 78 -6 24 -89 121 -103 120 -8 0 -44 -14 -80 -30z"/>
<path d="M3788 2765 c-111 -28 -199 -89 -239 -167 -34 -66 -23 -191 21 -245
15 -19 22 -21 46 -13 48 16 236 50 284 51 41 1 37 3 -36 18 -44 9 -92 24 -106
33 -49 32 -44 109 10 144 15 10 53 19 91 21 53 4 74 0 105 -16 22 -11 41 -20
42 -18 17 21 94 150 91 153 -2 3 -29 13 -60 24 -76 27 -178 33 -249 15z"/>
<path d="M1420 2698 l-45 -20 51 -24 c28 -13 66 -27 85 -31 l33 -6 -34 44
c-18 24 -36 47 -39 51 -3 4 -26 -2 -51 -14z"/>
<path d="M3206 2634 c-38 -8 -71 -16 -73 -18 -3 -2 7 -64 22 -138 41 -209 47
-231 54 -220 7 12 161 43 174 35 4 -2 6 6 3 19 -3 12 -17 94 -32 181 -31 180
-17 167 -148 141z"/>
<path d="M2181 2629 c-38 -7 -73 -26 -137 -74 -8 -6 -30 -5 -63 4 -54 14 -128
8 -170 -12 -48 -23 -77 -100 -60 -160 9 -34 89 -121 89 -97 0 7 -8 53 -17 101
-9 49 -14 91 -11 94 9 9 127 29 134 23 6 -6 12 -32 34 -142 l12 -58 65 113
c35 63 70 119 76 126 13 12 163 40 172 31 3 -3 -35 -70 -85 -148 -50 -79 -87
-147 -83 -151 5 -4 71 -58 148 -119 77 -61 141 -115 143 -120 2 -4 -10 -11
-25 -14 -15 -3 -54 -10 -85 -16 -54 -11 -80 -30 -40 -30 35 0 176 31 182 39 3
5 50 12 105 14 203 11 384 33 414 52 18 10 61 105 61 132 0 39 -22 72 -66 98
-47 28 -91 32 -132 12 -15 -8 -38 -11 -52 -7 -27 7 -27 11 -15 92 10 63 0 95
-34 113 -75 39 -201 27 -291 -28 -69 -42 -89 -70 -96 -137 -3 -30 -11 -66 -17
-80 -24 -50 -97 -27 -97 30 0 26 68 124 91 132 6 2 17 30 25 63 28 123 -18
155 -175 124z m535 -161 c15 -15 14 -20 -12 -67 -23 -43 -31 -50 -48 -45 -39
13 -80 6 -98 -17 -25 -29 -23 -90 3 -123 26 -34 84 -36 118 -5 l23 21 44 -43
45 -44 -35 -32 c-73 -67 -204 -71 -289 -9 -15 11 -38 42 -52 70 -61 122 -7
254 122 302 50 19 158 14 179 -8z m245 -198 c13 -7 19 -21 19 -43 0 -53 -9
-58 -86 -55 l-69 3 -3 38 c-2 21 2 45 9 53 14 17 101 19 130 4z"/>
<path d="M2515 2446 c-53 -28 -82 -59 -95 -106 -8 -27 -7 -28 18 -19 15 5 41
10 58 12 17 2 44 14 60 26 21 17 39 22 72 20 42 -3 46 -1 66 33 11 20 17 40
13 44 -5 5 -38 10 -75 12 -57 3 -75 -1 -117 -22z"/>
<path d="M2886 2225 c7 -17 20 -20 28 -6 3 5 -1 12 -10 15 -22 9 -24 8 -18 -9z"/>
<path d="M1566 2538 c24 -48 53 -68 99 -67 l40 2 -44 7 c-45 7 -91 45 -91 76
0 8 -5 14 -10 14 -6 0 -3 -14 6 -32z"/>
<path d="M2188 2548 l-47 -10 -72 -126 c-39 -70 -73 -129 -75 -131 -9 -9 -15
10 -35 110 -12 57 -22 105 -23 106 -5 6 -111 -25 -109 -33 9 -57 47 -232 52
-240 4 -8 39 -5 121 12 63 12 119 20 125 16 5 -3 4 2 -3 11 -12 14 -4 33 66
144 43 71 82 134 86 141 8 14 -16 14 -86 0z"/>
<path d="M1285 2494 c-132 -24 -243 -43 -247 -44 -5 0 -8 -10 -8 -22 0 -32
-35 -86 -65 -100 -14 -6 -25 -18 -25 -26 0 -18 52 -325 56 -330 1 -2 11 1 22
7 17 9 23 6 36 -14 9 -13 16 -31 16 -38 0 -8 7 -20 15 -27 30 -24 18 -49 -26
-56 -41 -7 -41 -7 -34 -43 8 -41 54 -131 67 -131 5 0 0 13 -12 29 -16 23 -50
102 -50 116 0 2 18 6 39 10 29 5 46 2 65 -11 19 -11 37 -15 62 -11 23 4 47 1
65 -8 18 -10 30 -11 34 -5 4 6 -7 15 -24 21 -37 13 -44 49 -10 49 18 0 16 6
-20 51 -23 29 -41 55 -41 60 0 5 18 18 40 29 22 11 40 28 40 37 0 9 -12 81
-26 161 -14 79 -22 152 -19 161 6 14 8 14 16 -4 7 -17 8 -15 6 9 -2 35 20 47
26 14 2 -13 3 -8 1 10 -3 33 3 37 44 26 15 -4 22 -14 23 -33 1 -18 3 -20 6 -8
3 10 10 16 16 14 11 -3 22 -55 57 -263 l11 -72 50 -6 c30 -4 49 -12 49 -20 0
-27 -33 -112 -49 -124 -14 -12 -13 -13 9 -8 14 4 32 2 40 -4 13 -9 11 -14 -14
-36 -15 -14 -26 -27 -23 -30 9 -10 45 15 71 49 43 57 55 101 52 184 -3 91 -40
181 -100 247 -36 39 -41 48 -30 59 8 8 110 -108 126 -144 7 -16 16 -29 19 -29
6 0 23 -58 20 -72 -1 -8 61 -27 68 -22 2 2 -9 80 -25 173 l-28 170 -33 6 c-37
7 -89 47 -98 75 -4 11 -9 19 -13 19 -4 -1 -115 -21 -247 -45z m198 -158 c9
-13 23 -30 31 -38 27 -28 72 -112 86 -161 19 -70 18 -159 -3 -191 -10 -14 -15
-26 -12 -26 4 0 -1 -7 -10 -16 -15 -16 -18 -16 -33 0 -15 16 -16 18 -1 29 9 7
14 18 11 26 -2 8 0 11 5 8 6 -4 4 17 -4 46 -7 28 -13 58 -13 66 0 8 -10 25
-22 39 l-23 24 27 19 27 20 -21 37 c-12 20 -33 51 -48 67 -25 29 -38 75 -21
75 5 0 16 -11 24 -24z m-324 -30 c6 -7 9 -20 5 -29 -5 -13 -8 -13 -25 4 -11
11 -17 24 -14 29 9 14 21 12 34 -4z m-21 -59 c4 -34 3 -34 -57 0 -2 2 2 10 9
18 19 23 45 14 48 -18z m-18 -57 c0 -21 -15 -27 -25 -10 -3 6 -16 10 -27 10
-20 0 -20 1 -3 20 21 23 55 11 55 -20z m-16 -52 c12 -34 9 -37 -31 -31 -35 6
-44 28 -21 51 19 19 41 10 52 -20z m87 -65 c-6 -33 -6 -67 2 -113 l8 -45 -25
30 c-14 17 -25 38 -26 47 0 9 -4 19 -9 23 -19 11 -34 75 -21 90 17 20 76 -6
71 -32z m-103 11 c28 -20 28 -34 -1 -34 -13 0 -28 -5 -34 -11 -16 -16 -28 28
-13 46 16 19 20 19 48 -1z m42 -74 c9 -17 8 -20 -10 -20 -12 0 -30 -4 -40 -10
-20 -11 -34 9 -24 35 9 23 61 19 74 -5z m27 -53 c9 -7 3 -14 -24 -28 -40 -20
-53 -18 -53 11 0 35 42 44 77 17z m37 -58 c30 -23 32 -55 5 -72 -24 -15 -64
-1 -77 28 -15 32 -15 30 4 49 21 21 36 20 68 -5z"/>
<path d="M1702 2440 c0 -14 4 -38 8 -55 l8 -30 0 30 c0 17 -4 41 -8 55 l-8 25
0 -25z"/>
<path d="M1322 2375 c0 -16 2 -22 5 -12 2 9 2 23 0 30 -3 6 -5 -1 -5 -18z"/>
<path d="M1362 2330 c0 -14 2 -19 5 -12 2 6 2 18 0 25 -3 6 -5 1 -5 -13z"/>
<path d="M1292 2315 c0 -16 2 -22 5 -12 2 9 2 23 0 30 -3 6 -5 -1 -5 -18z"/>
<path d="M1332 2320 c0 -14 2 -19 5 -12 2 6 2 18 0 25 -3 6 -5 1 -5 -13z"/>
<path d="M1262 2310 c0 -14 2 -19 5 -12 2 6 2 18 0 25 -3 6 -5 1 -5 -13z"/>
<path d="M1721 2314 c0 -11 3 -14 6 -6 3 7 2 16 -1 19 -3 4 -6 -2 -5 -13z"/>
<path d="M1342 2265 c0 -16 2 -22 5 -12 2 9 2 23 0 30 -3 6 -5 -1 -5 -18z"/>
<path d="M1372 2270 c0 -14 2 -19 5 -12 2 6 2 18 0 25 -3 6 -5 1 -5 -13z"/>
<path d="M1302 2260 c0 -14 2 -19 5 -12 2 6 2 18 0 25 -3 6 -5 1 -5 -13z"/>
<path d="M1272 2250 c0 -14 2 -19 5 -12 2 6 2 18 0 25 -3 6 -5 1 -5 -13z"/>
<path d="M1731 2254 c0 -11 3 -14 6 -6 3 7 2 16 -1 19 -3 4 -6 -2 -5 -13z"/>
<path d="M1841 2244 c0 -11 3 -14 6 -6 3 7 2 16 -1 19 -3 4 -6 -2 -5 -13z"/>
<path d="M1382 2215 c0 -16 2 -22 5 -12 2 9 2 23 0 30 -3 6 -5 -1 -5 -18z"/>
<path d="M1312 2205 c0 -16 2 -22 5 -12 2 9 2 23 0 30 -3 6 -5 -1 -5 -18z"/>
<path d="M1352 2205 c0 -16 2 -22 5 -12 2 9 2 23 0 30 -3 6 -5 -1 -5 -18z"/>
<path d="M1852 2200 c0 -14 4 -36 8 -50 6 -20 8 -21 8 -5 0 11 -4 34 -8 50 -7
27 -8 27 -8 5z"/>
<path d="M1282 2190 c0 -14 2 -19 5 -12 2 6 2 18 0 25 -3 6 -5 1 -5 -13z"/>
<path d="M2035 2078 c17 -81 20 -115 12 -120 -6 -4 -32 -10 -57 -13 -56 -8
-79 -19 -56 -28 18 -7 125 12 142 25 11 8 5 58 -22 182 -6 27 0 24 87 -48 52
-43 78 -63 58 -45 -60 56 -177 159 -182 159 -2 0 6 -51 18 -112z"/>
<path d="M1392 2155 c0 -16 2 -22 5 -12 2 9 2 23 0 30 -3 6 -5 -1 -5 -18z"/>
<path d="M1322 2145 c0 -16 2 -22 5 -12 2 9 2 23 0 30 -3 6 -5 -1 -5 -18z"/>
<path d="M1362 2145 c0 -16 2 -22 5 -12 2 9 2 23 0 30 -3 6 -5 -1 -5 -18z"/>
<path d="M1292 2135 c0 -16 2 -22 5 -12 2 9 2 23 0 30 -3 6 -5 -1 -5 -18z"/>
<path d="M1751 2144 c0 -11 3 -14 6 -6 3 7 2 16 -1 19 -3 4 -6 -2 -5 -13z"/>
<path d="M1402 2100 c0 -14 2 -19 5 -12 2 6 2 18 0 25 -3 6 -5 1 -5 -13z"/>
<path d="M1872 2100 c0 -14 4 -36 8 -50 6 -20 8 -21 8 -5 0 11 -4 34 -8 50 -7
27 -8 27 -8 5z"/>
<path d="M1332 2085 c0 -16 2 -22 5 -12 2 9 2 23 0 30 -3 6 -5 -1 -5 -18z"/>
<path d="M1372 2085 c0 -16 2 -22 5 -12 2 9 2 23 0 30 -3 6 -5 -1 -5 -18z"/>
<path d="M1302 2075 c0 -16 2 -22 5 -12 2 9 2 23 0 30 -3 6 -5 -1 -5 -18z"/>
<path d="M1761 2084 c0 -11 3 -14 6 -6 3 7 2 16 -1 19 -3 4 -6 -2 -5 -13z"/>
<path d="M1771 2024 c0 -11 3 -14 6 -6 3 7 2 16 -1 19 -3 4 -6 -2 -5 -13z"/>
<path d="M1367 2006 c-37 -7 -69 -15 -72 -17 -2 -3 -2 -14 1 -26 5 -18 12 -21
42 -17 35 3 34 3 -5 -7 -24 -6 -43 -14 -43 -20 0 -12 1 -12 93 6 43 8 81 15
83 15 2 0 4 5 4 11 0 6 -17 8 -47 5 l-48 -5 41 10 c36 8 41 12 36 34 -2 14 -7
24 -11 24 -3 -1 -36 -7 -74 -13z"/>
<path d="M1891 1994 c0 -11 3 -14 6 -6 3 7 2 16 -1 19 -3 4 -6 -2 -5 -13z"/>
<path d="M1708 1957 c-41 -8 -48 -13 -53 -38 -5 -21 -15 -31 -38 -38 -21 -6
-25 -9 -12 -10 25 -1 65 25 65 43 0 14 29 26 64 26 17 0 18 -7 14 -77 -4 -53
-2 -70 4 -54 5 14 7 54 6 91 l-3 65 -47 -8z"/>
<path d="M3092 1950 c12 -19 24 -25 54 -26 30 -1 32 -1 9 3 -16 2 -41 14 -55
26 l-24 22 16 -25z"/>
<path d="M2968 1934 c-38 -20 -36 -28 2 -9 17 9 30 18 30 20 0 7 -1 6 -32 -11z"/>
<path d="M3560 1923 c0 -6 8 -17 18 -24 16 -13 16 -13 2 6 -8 11 -16 22 -17
24 -2 2 -3 0 -3 -6z"/>
<path d="M1438 1883 c7 -3 16 -2 19 1 4 3 -2 6 -13 5 -11 0 -14 -3 -6 -6z"/>
<path d="M1378 1873 c7 -3 16 -2 19 1 4 3 -2 6 -13 5 -11 0 -14 -3 -6 -6z"/>
<path d="M2558 1859 c-92 -48 -103 -181 -20 -251 47 -39 102 -45 159 -16 65
32 88 67 88 133 0 119 -121 191 -227 134z m68 -70 c4 -8 9 -8 17 0 16 16 53
13 71 -5 26 -25 19 -69 -15 -109 -54 -62 -64 -63 -115 -12 -35 35 -44 51 -44
79 0 19 5 39 12 46 15 15 65 16 74 1z"/>
<path d="M1318 1863 c7 -3 16 -2 19 1 4 3 -2 6 -13 5 -11 0 -14 -3 -6 -6z"/>
<path d="M2200 1853 c-70 -36 -97 -113 -66 -188 21 -48 68 -75 135 -75 49 0
57 3 92 39 35 35 39 44 39 90 0 89 -40 136 -122 147 -30 4 -53 0 -78 -13z
m113 -43 c8 -21 18 -30 33 -30 38 0 47 -22 32 -82 l-13 -53 -105 0 -105 0 0
60 0 60 35 0 c42 0 60 10 60 34 0 21 19 41 38 41 7 0 19 -13 25 -30z"/>
<path d="M1398 1833 c6 -2 18 -2 25 0 6 3 1 5 -13 5 -14 0 -19 -2 -12 -5z"/>
<path d="M1480 1822 c0 -7 -7 -12 -15 -12 -8 0 -15 -4 -15 -8 0 -5 7 -9 15 -9
15 0 30 26 20 35 -3 3 -5 0 -5 -6z"/>
<path d="M1518 1814 c-16 -15 -6 -19 53 -21 43 -1 58 2 51 9 -13 13 -94 23
-104 12z"/>
<path d="M1312 1780 c0 -14 2 -19 5 -12 2 6 2 18 0 25 -3 6 -5 1 -5 -13z"/>
<path d="M1762 1756 c-22 -60 -97 -133 -176 -171 -177 -85 -386 -65 -495 49
-19 19 -37 33 -41 31 -4 -3 -11 -25 -14 -50 -7 -41 -10 -45 -47 -56 -21 -7
-39 -15 -39 -18 0 -4 27 -33 60 -66 53 -53 66 -60 103 -62 23 -1 74 -11 112
-22 167 -48 368 -9 510 98 29 22 63 41 76 43 19 2 33 21 66 83 23 44 42 83 43
88 0 4 -20 7 -43 7 -42 0 -45 2 -62 40 -22 49 -37 51 -53 6z m43 -46 c5 -15
15 -20 41 -20 19 0 34 -4 34 -8 0 -5 -14 -34 -31 -65 -21 -40 -36 -57 -51 -57
-11 0 -38 -15 -59 -34 -56 -47 -142 -91 -219 -111 -93 -24 -265 -17 -337 14
-39 17 -56 20 -70 12 -17 -8 -27 -2 -68 39 -27 27 -47 51 -44 53 2 2 16 8 32
15 20 9 27 19 27 39 l0 27 38 -37 c20 -20 46 -36 57 -36 11 1 45 -6 75 -15
134 -38 310 -9 429 73 34 22 67 41 75 41 8 0 22 20 33 45 20 50 28 55 38 25z"/>
<path d="M1787 1603 c-4 -3 -7 -11 -7 -17 0 -6 5 -5 12 2 6 6 9 14 7 17 -3 3
-9 2 -12 -2z"/>
<path d="M1647 1556 c-20 -18 -39 -31 -41 -29 -3 3 -2 -4 1 -16 3 -13 1 -21
-6 -21 -7 0 -9 5 -6 10 11 17 -21 22 -53 8 -28 -12 -30 -15 -16 -32 14 -19 14
-19 14 5 l0 24 21 -25 c15 -18 19 -20 15 -6 -5 13 -2 17 9 13 16 -7 80 17 90
33 4 6 1 17 -5 25 -10 12 -9 15 4 15 9 0 16 -4 16 -10 0 -5 5 -10 11 -10 8 0
8 4 -1 15 -6 8 -9 19 -5 25 13 21 -12 9 -48 -24z m11 -31 c-2 -5 -9 -9 -15 -9
-7 1 -13 -3 -13 -9 0 -6 -2 -8 -5 -5 -3 3 -3 13 1 22 7 18 37 19 32 1z"/>
<path d="M1100 1491 c0 -10 19 -25 25 -20 1 2 -3 10 -11 17 -8 7 -14 8 -14 3z"/>
<path d="M1201 1473 c0 -16 3 -22 6 -15 4 10 8 9 19 -5 13 -17 14 -16 11 7 -4
44 -37 56 -36 13z"/>
<path d="M1257 1483 c-13 -12 -7 -41 10 -47 9 -4 23 0 31 8 13 12 13 18 2 30
-13 17 -32 21 -43 9z m33 -17 c0 -8 -4 -17 -9 -21 -12 -7 -24 12 -16 25 9 15
25 12 25 -4z"/>
<path d="M1433 1483 c-13 -5 -18 -35 -7 -46 8 -7 34 17 34 32 0 13 -12 19 -27
14z m17 -13 c0 -5 -5 -10 -11 -10 -5 0 -7 5 -4 10 3 6 8 10 11 10 2 0 4 -4 4
-10z"/>
<path d="M1484 1474 c3 -8 2 -12 -4 -9 -6 3 -10 0 -10 -8 0 -10 8 -13 24 -10
22 4 23 8 13 24 -14 23 -32 25 -23 3z"/>
<path d="M1318 1455 c5 -29 5 -29 21 3 10 19 9 22 -7 22 -15 0 -18 -5 -14 -25z"/>
<path d="M1361 1461 c-14 -26 -15 -26 13 -27 18 -1 22 2 19 17 -8 28 -21 32
-32 10z"/>
<path d="M1638 1773 c7 -3 16 -2 19 1 4 3 -2 6 -13 5 -11 0 -14 -3 -6 -6z"/>
<path d="M1233 1750 c-18 -11 -33 -24 -33 -30 0 -5 15 -1 33 10 17 11 40 20
50 20 9 0 17 5 17 10 0 16 -33 11 -67 -10z"/>
<path d="M1711 1733 c-10 -26 -10 -27 4 -9 8 11 15 23 15 28 0 15 -7 8 -19
-19z"/>
<path d="M1595 1740 c-3 -6 1 -7 9 -4 18 7 21 14 7 14 -6 0 -13 -4 -16 -10z"/>
<path d="M1488 1673 c7 -3 16 -2 19 1 4 3 -2 6 -13 5 -11 0 -14 -3 -6 -6z"/>
<path d="M1649 1661 c-41 -32 -122 -68 -180 -81 -54 -12 -189 -10 -249 4 -14
3 -7 -1 15 -8 47 -17 182 -20 244 -5 56 12 137 51 176 83 35 29 29 35 -6 7z"/>
<path d="M1128 1656 c-13 -10 -15 -15 -6 -24 16 -16 33 -15 19 1 -8 10 -7 17
1 25 16 16 7 15 -14 -2z"/>
<path d="M1455 1640 c-3 -6 1 -7 9 -4 18 7 21 14 7 14 -6 0 -13 -4 -16 -10z"/>
<path d="M1258 1633 c7 -3 16 -2 19 1 4 3 -2 6 -13 5 -11 0 -14 -3 -6 -6z"/>
<path d="M1410 1025 c0 -68 2 -75 19 -75 15 0 21 8 23 33 l3 32 18 -32 c11
-20 25 -33 37 -33 25 0 25 5 -1 47 l-22 35 22 28 c26 36 26 40 2 40 -11 0 -29
-12 -40 -27 l-20 -28 -1 28 c0 20 -5 27 -20 27 -18 0 -20 -7 -20 -75z"/>
<path d="M1550 1025 l0 -75 45 0 c33 0 45 4 45 15 0 9 -9 15 -25 15 -16 0 -25
6 -25 15 0 8 9 15 20 15 11 0 20 7 20 15 0 8 -9 15 -20 15 -11 0 -20 7 -20 15
0 9 9 15 25 15 16 0 25 6 25 15 0 11 -12 15 -45 15 l-45 0 0 -75z"/>
<path d="M1683 1074 c-21 -21 -24 -32 -19 -62 3 -20 14 -43 23 -50 25 -18 77
-11 81 11 3 14 -1 17 -21 12 -34 -9 -55 25 -38 62 9 20 17 24 35 19 27 -7 45
19 20 28 -31 12 -55 6 -81 -20z"/>
<path d="M1836 1088 c-3 -7 -13 -41 -25 -75 l-20 -63 25 0 c15 0 24 6 24 15 0
9 9 15 25 15 14 0 28 -7 31 -15 6 -15 44 -22 44 -8 0 4 -10 37 -22 75 -20 63
-24 68 -50 68 -16 0 -30 -6 -32 -12z m43 -65 c1 -7 -6 -13 -15 -13 -11 0 -14
5 -10 16 3 9 6 23 7 32 0 14 2 13 9 -3 5 -11 9 -26 9 -32z"/>
<path d="M1960 1026 c0 -61 3 -76 15 -76 11 0 15 12 16 48 l1 47 16 -48 c13
-38 20 -47 36 -45 15 2 23 16 32 48 l12 45 1 -47 c1 -41 4 -48 21 -48 18 0 20
7 20 75 l0 75 -29 0 c-25 0 -29 -5 -43 -52 l-15 -53 -15 50 c-13 42 -19 51
-41 53 l-27 3 0 -75z"/>
<path d="M2186 1088 c-3 -7 -13 -41 -25 -75 l-20 -63 25 0 c15 0 24 6 24 15 0
9 9 15 25 15 14 0 28 -7 31 -15 6 -15 44 -22 44 -8 0 4 -10 37 -22 75 -20 63
-24 68 -50 68 -16 0 -30 -6 -32 -12z m43 -65 c1 -7 -6 -13 -15 -13 -11 0 -14
5 -10 16 3 9 6 23 7 32 0 14 2 13 9 -3 5 -11 9 -26 9 -32z"/>
<path d="M2300 1085 c0 -8 7 -15 15 -15 12 0 15 -13 15 -60 0 -53 2 -60 20
-60 18 0 20 7 20 60 0 53 2 60 20 60 11 0 20 7 20 15 0 12 -13 15 -55 15 -42
0 -55 -3 -55 -15z"/>
<path d="M2456 1088 c-3 -7 -13 -41 -25 -75 l-20 -63 25 0 c15 0 24 6 24 15 0
9 9 15 25 15 14 0 28 -7 31 -15 6 -15 44 -22 44 -8 0 4 -10 37 -22 75 -20 63
-24 68 -50 68 -16 0 -30 -6 -32 -12z m43 -65 c1 -7 -6 -13 -15 -13 -11 0 -14
5 -10 16 3 9 6 23 7 32 0 14 2 13 9 -3 5 -11 9 -26 9 -32z"/>
<path d="M2580 1025 c0 -60 3 -75 15 -75 11 0 15 13 16 53 l0 52 27 -52 c22
-45 30 -53 54 -53 l28 0 0 75 c0 68 -2 75 -20 75 -17 0 -20 -7 -20 -47 l-1
-48 -25 48 c-19 37 -30 47 -49 47 -24 0 -25 -2 -25 -75z"/>
<path d="M2840 1019 c0 -72 -2 -81 -20 -86 -28 -7 -25 -33 3 -33 43 0 57 28
57 118 0 75 -2 82 -20 82 -18 0 -20 -7 -20 -81z"/>
<path d="M2936 1088 c-3 -7 -13 -41 -25 -75 l-20 -63 25 0 c15 0 24 6 24 15 0
9 9 15 25 15 14 0 28 -7 31 -15 6 -15 44 -22 44 -8 0 4 -10 37 -22 75 -20 63
-24 68 -50 68 -16 0 -30 -6 -32 -12z m43 -65 c1 -7 -6 -13 -15 -13 -11 0 -14
5 -10 16 3 9 6 23 7 32 0 14 2 13 9 -3 5 -11 9 -26 9 -32z"/>
<path d="M3050 1085 c0 -8 7 -15 15 -15 12 0 15 -13 15 -60 0 -53 2 -60 20
-60 18 0 20 7 20 60 0 53 2 60 20 60 11 0 20 7 20 15 0 12 -13 15 -55 15 -42
0 -55 -3 -55 -15z"/>
<path d="M3180 1025 c0 -68 2 -75 20 -75 18 0 20 7 20 75 0 68 -2 75 -20 75
-18 0 -20 -7 -20 -75z"/>
<path d="M3258 1089 c-27 -15 -22 -46 12 -71 39 -28 38 -41 -1 -33 -26 6 -30
4 -27 -12 5 -27 61 -30 88 -3 16 16 18 24 10 41 -6 11 -22 25 -36 31 -34 16
-30 32 7 24 25 -5 30 -3 27 12 -4 20 -54 27 -80 11z"/>
<path d="M3396 1088 c-3 -7 -13 -41 -25 -75 l-20 -63 25 0 c15 0 24 6 24 15 0
9 9 15 25 15 14 0 28 -7 31 -15 6 -15 44 -22 44 -8 0 4 -10 37 -22 75 -20 63
-24 68 -50 68 -16 0 -30 -6 -32 -12z m43 -65 c1 -7 -6 -13 -15 -13 -11 0 -14
5 -10 16 3 9 6 23 7 32 0 14 2 13 9 -3 5 -11 9 -26 9 -32z"/>
<path d="M3520 1026 c0 -61 3 -76 15 -76 11 0 15 12 16 48 l1 47 16 -48 c13
-38 20 -47 36 -45 15 2 23 16 32 48 l12 45 1 -47 c1 -41 4 -48 21 -48 18 0 20
7 20 75 l0 75 -29 0 c-25 0 -29 -5 -43 -52 l-15 -53 -15 50 c-13 42 -19 51
-41 53 l-27 3 0 -75z"/>
<path d="M3720 1025 c0 -68 2 -75 20 -75 15 0 20 7 20 25 0 18 5 25 20 25 11
0 27 11 36 25 15 23 15 27 0 50 -13 20 -25 25 -56 25 l-40 0 0 -75z m60 25 c0
-11 -4 -20 -10 -20 -5 0 -10 9 -10 20 0 11 5 20 10 20 6 0 10 -9 10 -20z"/>
<path d="M3852 1033 c3 -64 5 -68 31 -77 17 -6 37 -6 55 0 25 9 27 13 30 77 3
61 1 67 -17 67 -17 0 -20 -8 -23 -57 -2 -44 -7 -58 -18 -58 -11 0 -16 14 -18
58 -3 49 -6 57 -23 57 -18 0 -20 -6 -17 -67z"/>
<path d="M4010 1025 c0 -68 2 -75 20 -75 15 0 20 7 20 28 l1 27 20 -27 c11
-16 30 -28 41 -28 20 0 20 1 3 26 -14 21 -15 31 -6 51 6 13 11 28 11 33 0 21
-34 40 -71 40 l-39 0 0 -75z m65 25 c0 -7 -6 -15 -12 -17 -8 -3 -13 4 -13 17
0 13 5 20 13 18 6 -3 12 -11 12 -18z"/>
<path d="M4150 1025 c0 -60 3 -75 15 -75 11 0 15 13 16 53 l0 52 27 -52 c22
-45 30 -53 54 -53 l28 0 0 75 c0 68 -2 75 -20 75 -17 0 -20 -7 -20 -47 l-1
-48 -25 48 c-19 37 -30 47 -49 47 -24 0 -25 -2 -25 -75z"/>
<path d="M4356 1088 c-3 -7 -13 -41 -25 -75 l-20 -63 25 0 c15 0 24 6 24 15 0
9 9 15 25 15 14 0 28 -7 31 -15 6 -15 44 -22 44 -8 0 4 -10 37 -22 75 -20 63
-24 68 -50 68 -16 0 -30 -6 -32 -12z m43 -65 c1 -7 -6 -13 -15 -13 -11 0 -14
5 -10 16 3 9 6 23 7 32 0 14 2 13 9 -3 5 -11 9 -26 9 -32z"/>
<path d="M2250 765 c0 -68 2 -75 19 -75 15 0 21 8 23 33 l3 32 18 -32 c11 -20
25 -33 37 -33 25 0 25 5 -1 47 l-22 35 22 28 c26 36 26 40 2 40 -11 0 -29 -12
-40 -27 l-20 -28 -1 28 c0 20 -5 27 -20 27 -18 0 -20 -7 -20 -75z"/>
<path d="M2406 824 c-49 -48 -20 -134 45 -134 37 0 79 40 79 75 0 57 -86 98
-124 59z m72 -53 c5 -50 -30 -69 -49 -27 -8 17 -8 29 1 45 17 33 44 23 48 -18z"/>
<path d="M2550 825 c0 -8 7 -15 15 -15 12 0 15 -13 15 -60 0 -53 2 -60 20 -60
18 0 20 7 20 60 0 53 2 60 20 60 11 0 20 7 20 15 0 12 -13 15 -55 15 -42 0
-55 -3 -55 -15z"/>
<path d="M2706 828 c-3 -7 -13 -41 -25 -75 l-20 -63 25 0 c15 0 24 6 24 15 0
9 9 15 25 15 14 0 28 -7 31 -15 6 -15 44 -22 44 -8 0 4 -10 37 -22 75 -20 63
-24 68 -50 68 -16 0 -30 -6 -32 -12z m43 -65 c1 -7 -6 -13 -15 -13 -11 0 -14
5 -10 16 3 9 6 23 7 32 0 14 2 13 9 -3 5 -11 9 -26 9 -32z"/>
<path d="M2900 765 l0 -75 36 0 c19 0 44 5 55 10 21 12 27 60 7 60 -9 0 -9 3
0 12 33 33 1 68 -62 68 l-36 0 0 -75z m62 30 c0 -5 -5 -11 -11 -13 -6 -2 -11
4 -11 13 0 9 5 15 11 13 6 -2 11 -8 11 -13z m8 -60 c0 -8 -7 -15 -15 -15 -8 0
-15 7 -15 15 0 8 7 15 15 15 8 0 15 -7 15 -15z"/>
<path d="M3040 765 l0 -75 45 0 c33 0 45 4 45 15 0 9 -9 15 -25 15 -16 0 -25
6 -25 15 0 8 9 15 20 15 11 0 20 7 20 15 0 8 -9 15 -20 15 -11 0 -20 7 -20 15
0 9 9 15 25 15 16 0 25 6 25 15 0 11 -12 15 -45 15 l-45 0 0 -75z"/>
<path d="M3160 765 c0 -68 2 -75 19 -75 15 0 21 8 23 33 l3 32 18 -32 c16 -30
22 -33 62 -33 33 0 45 4 45 15 0 9 9 15 25 15 14 0 28 -7 31 -15 6 -15 44 -22
44 -8 0 4 -10 37 -22 75 -21 66 -24 69 -51 66 -27 -3 -31 -9 -51 -73 l-22 -69
-23 38 -24 38 22 28 c26 36 26 40 2 40 -11 0 -29 -12 -40 -27 l-20 -28 -1 28
c0 20 -5 27 -20 27 -18 0 -20 -7 -20 -75z m209 -2 c1 -7 -6 -13 -15 -13 -11 0
-14 5 -10 16 3 9 6 23 7 32 0 14 2 13 9 -3 5 -11 9 -26 9 -32z"/>
<path d="M3458 829 c-27 -15 -22 -46 12 -71 39 -28 38 -41 -1 -33 -26 6 -30 4
-27 -12 5 -27 61 -30 88 -3 16 16 18 24 10 41 -6 11 -22 25 -36 31 -34 16 -30
32 7 24 25 -5 30 -3 27 12 -4 20 -54 27 -80 11z"/>
<path d="M3570 765 c0 -68 2 -75 20 -75 18 0 20 7 20 75 0 68 -2 75 -20 75
-18 0 -20 -7 -20 -75z"/>
<path d="M2685 4079 c0 -32 31 -44 59 -23 25 17 2 53 -33 52 -22 -1 -26 -6
-26 -29z"/>
<path d="M3012 4119 c-8 -12 -9 -18 -3 -14 6 3 11 -1 11 -10 0 -8 -7 -18 -15
-21 -14 -6 -13 -8 2 -20 30 -22 60 -17 65 11 4 19 1 25 -11 25 -23 0 -41 19
-34 36 8 21 0 17 -15 -7z"/>
<path d="M4426 2865 c-98 -19 -181 -37 -184 -40 -3 -2 5 -55 17 -117 37 -187
53 -251 60 -241 3 5 35 15 71 22 96 18 100 20 100 47 0 13 5 24 11 24 7 0 9
19 4 59 -6 55 -5 59 19 79 32 24 116 38 144 23 35 -19 56 -147 27 -171 -8 -7
-12 -16 -9 -21 9 -15 37 -10 59 11 22 21 159 55 177 44 20 -12 3 137 -20 181
-69 134 -179 157 -476 100z"/>
<path d="M4583 2699 c-57 -14 -66 -27 -53 -81 8 -32 16 -44 30 -44 16 0 17 2
4 20 -8 11 -14 26 -14 33 0 18 37 53 55 53 20 0 55 -36 55 -55 0 -9 -11 -27
-25 -40 l-24 -25 28 0 c46 0 56 20 40 87 -16 65 -23 68 -96 52z m71 -20 c-3
-5 -10 -7 -15 -3 -5 3 -7 10 -3 15 3 5 10 7 15 3 5 -3 7 -10 3 -15z"/>
<path d="M4582 2628 c3 -25 36 -37 48 -17 13 20 0 39 -27 39 -20 0 -24 -4 -21
-22z"/>
</g>
</svg>
